<svg width="90" height="90" viewBox="0 0 90 90" fill="none" xmlns="http://www.w3.org/2000/svg">
<g clip-path="url(#clip0_65_621)">
<path fill-rule="evenodd" clip-rule="evenodd" d="M20.6999 41.5875C19.2074 43.2848 18.1178 45.2975 17.5124 47.475C16.8749 50.1375 19.1999 54 22.5749 56.8875C25.237 59.4891 28.7909 60.9777 32.5124 61.05C33.7382 60.8855 34.8532 60.2541 35.6249 59.2875C36.2285 58.3813 36.59 57.3356 36.6749 56.25C36.6707 55.6675 36.7464 55.0871 36.8999 54.525C37.1249 54.525 37.6499 54.225 38.0999 54.1125C39.4614 53.9322 40.8042 53.631 42.1124 53.2125C42.8855 52.9448 43.5898 52.5094 44.1749 51.9375C44.8018 51.1649 45.134 50.1948 45.1124 49.2C45.1124 47.6625 45.7499 44.3625 44.8874 43.875C45.4806 43.6306 46.1226 43.5279 46.7624 43.575C47.5868 43.5731 48.4026 43.4074 49.1624 43.0875C49.7281 42.7792 50.2236 42.3566 50.6174 41.8466C51.0112 41.3366 51.2947 40.7504 51.4499 40.125C52.0329 38.2943 52.0043 36.3235 51.3684 34.5104C50.7324 32.6974 49.5237 31.1405 47.9249 30.075C46.1301 28.7708 44.0202 27.9683 41.8124 27.75C41.1769 27.2039 40.6941 26.502 40.4115 25.7131C40.1288 24.9243 40.0559 24.0755 40.1999 23.25C40.3159 22.5616 40.66 21.9322 41.1769 21.4629C41.6938 20.9936 42.3535 20.7117 43.0499 20.6625C44.5038 20.4384 45.9835 20.4384 47.4374 20.6625C48.4463 20.799 49.4476 20.9868 50.4374 21.225C53.0528 21.959 55.5708 23.0039 57.9374 24.3375C58.1711 24.4917 58.4565 24.5467 58.7308 24.4904C59.005 24.4342 59.2457 24.2713 59.3999 24.0375C59.554 23.8038 59.609 23.5184 59.5528 23.2442C59.4965 22.9699 59.3336 22.7292 59.0999 22.575C56.3997 20.2576 53.2987 18.453 49.9499 17.25C47.5365 16.4446 44.9684 16.2134 42.4499 16.575C40.9282 16.8123 39.5384 17.5771 38.5238 18.7357C37.5091 19.8943 36.9343 21.3729 36.8999 22.9125C36.784 24.7831 37.3726 26.6293 38.5499 28.0875H37.7249C37.4166 28.182 37.1584 28.3951 37.0072 28.6799C36.856 28.9648 36.8242 29.298 36.9186 29.6063C37.0131 29.9146 37.2262 30.1728 37.511 30.324C37.7959 30.4752 38.1291 30.507 38.4374 30.4125C39.7875 30.0918 41.1943 30.0945 42.5432 30.4203C43.8921 30.7461 45.145 31.3859 46.1999 32.2875C47.245 33.0338 48.0213 34.0976 48.4132 35.3205C48.8051 36.5435 48.7917 37.8603 48.3749 39.075C48.1874 39.6 47.9999 39.9 47.7374 40.0125C46.9556 40.1469 46.1567 40.1469 45.3749 40.0125C44.6597 40.0391 43.9577 40.2126 43.3126 40.5223C42.6674 40.8319 42.0929 41.2712 41.6249 41.8125C41.1895 42.3527 40.9632 43.0317 40.9874 43.725C40.9874 48.3 43.7999 48.9 39.1499 49.7625C37.8795 49.9348 36.6253 50.2108 35.3999 50.5875C34.8263 50.8349 34.3236 51.2216 33.9374 51.7125C33.4169 52.4502 33.0706 53.2965 32.9249 54.1875C32.8916 54.9473 32.7785 55.7015 32.5874 56.4375C32.5874 56.6625 32.2499 56.775 31.8374 56.85C30.1874 57.1875 27.4499 55.575 25.0874 53.7C23.7368 52.6506 22.5708 51.3832 21.6374 49.95C21.0709 49.3265 20.7743 48.5041 20.8124 47.6625C21.4238 45.3126 22.6241 43.1573 24.2999 41.4C27.0749 38.1 30.6374 35.025 32.6624 32.8125C32.7622 32.7148 32.8414 32.5981 32.8955 32.4693C32.9497 32.3405 32.9775 32.2022 32.9775 32.0625C32.9775 31.9229 32.9497 31.7846 32.8955 31.6558C32.8414 31.527 32.7622 31.4103 32.6624 31.3125C32.5646 31.2128 32.4479 31.1335 32.3191 31.0794C32.1904 31.0253 32.0521 30.9974 31.9124 30.9974C31.7727 30.9974 31.6344 31.0253 31.5056 31.0794C31.3768 31.1335 31.2602 31.2128 31.1624 31.3125C27.4854 34.5391 23.9924 37.9695 20.6999 41.5875Z" fill="black"/>
<path fill-rule="evenodd" clip-rule="evenodd" d="M24.7875 59.5501C22.6036 61.2461 20.5824 63.1418 18.75 65.2126C17.9633 66.1178 17.2486 67.0833 16.6125 68.1001C15.9328 69.0894 15.331 70.13 14.8125 71.2126C13.5949 73.7067 12.567 76.289 11.7375 78.9376C11.6758 79.0828 11.6433 79.2388 11.6419 79.3967C11.6405 79.5545 11.6703 79.711 11.7295 79.8573C11.7887 80.0036 11.8762 80.1368 11.987 80.2493C12.0978 80.3617 12.2296 80.4512 12.375 80.5126C12.5203 80.5743 12.6763 80.6068 12.8341 80.6082C12.9919 80.6096 13.1485 80.5798 13.2948 80.5206C13.4411 80.4614 13.5743 80.3739 13.6867 80.2631C13.7991 80.1523 13.8886 80.0205 13.95 79.8751C15 77.8501 16.2375 76.1251 17.475 74.0251C18.7125 71.9251 19.8 70.5751 20.9625 68.8501C22.5803 66.1669 24.3455 63.5754 26.25 61.0876C26.4426 60.8854 26.55 60.6168 26.55 60.3376C26.55 60.0583 26.4426 59.7898 26.25 59.5876C26.059 59.3923 25.7994 59.2792 25.5264 59.2722C25.2533 59.2652 24.9883 59.3649 24.7875 59.5501Z" fill="black"/>
<path fill-rule="evenodd" clip-rule="evenodd" d="M75.2998 52.9875C75.3362 50.9403 74.94 48.9086 74.1373 47.025C73.8748 46.5 73.4623 44.85 72.8623 44.7C73.1932 44.3912 73.4945 44.0523 73.7623 43.6875C74.259 42.9322 74.508 42.0409 74.4748 41.1375C74.4039 40.2451 74.0639 39.3952 73.4998 38.7C72.5962 37.7623 71.6316 36.8854 70.6123 36.075L70.2373 35.8125L70.4998 35.55C70.8784 35.1412 71.2058 34.6879 71.4748 34.2C71.8288 33.466 71.9342 32.6367 71.7748 31.8375C71.5374 30.3058 70.7685 28.9066 69.6029 27.885C68.4373 26.8634 66.9494 26.2846 65.3998 26.25C61.6408 26.2695 57.9125 26.9289 54.3748 28.2L50.6248 29.3625C50.3609 29.449 50.1401 29.6331 50.0076 29.8771C49.8752 30.1211 49.8411 30.4066 49.9123 30.675C49.951 30.8084 50.0158 30.9328 50.1029 31.041C50.19 31.1492 50.2977 31.239 50.4198 31.3053C50.5419 31.3716 50.6759 31.4129 50.8141 31.4271C50.9523 31.4412 51.0919 31.4277 51.2248 31.3875L54.9748 30.4125C58.2412 29.3548 61.6693 28.885 65.0998 29.025C66.0211 29.0183 66.9126 29.3511 67.6043 29.9597C68.2959 30.5684 68.7393 31.4103 68.8498 32.325C68.8498 32.625 68.6248 32.775 68.4748 32.9625L67.4248 34.0875C67.1005 34.5 66.8586 34.9711 66.7123 35.475C66.6538 35.7404 66.6536 36.0154 66.7119 36.2809C66.7702 36.5464 66.8855 36.796 67.0498 37.0125C67.4275 37.5049 67.8411 37.9687 68.2873 38.4C68.7748 38.925 69.5623 39.525 70.2373 40.2C70.9123 40.875 70.9123 40.8375 70.9498 41.2125C70.9873 41.5875 70.5748 41.775 70.3498 42.0375C69.9032 42.5298 69.5133 43.0707 69.1873 43.65C68.9965 44.0736 68.9066 44.5357 68.9248 45C68.9592 45.4824 69.0865 45.9535 69.2998 46.3875C69.6748 47.1375 70.4623 48.075 70.7248 48.675C71.2007 50.0597 71.3796 51.5291 71.2498 52.9875C71.2877 54.3627 70.9918 55.7267 70.3873 56.9625C70.0873 57.4875 69.4123 57.5625 68.7373 57.7125C67.6189 57.8828 66.4924 57.9955 65.3623 58.05C62.1373 58.5 59.8123 58.05 57.4498 58.575C55.4474 58.8737 53.5449 59.645 51.8998 60.825C48.5055 63.9179 45.5077 67.4196 42.9748 71.25C38.9835 76.6303 35.3506 82.2675 32.0998 88.125C31.9812 88.2737 31.8997 88.4484 31.8619 88.6347C31.824 88.8211 31.8311 89.0138 31.8823 89.1969C31.9336 89.38 32.0277 89.5483 32.1568 89.688C32.2858 89.8276 32.4463 89.9345 32.6248 90C32.7618 90.0778 32.9132 90.127 33.0697 90.1446C33.2263 90.1621 33.3848 90.1477 33.5356 90.1021C33.6864 90.0565 33.8264 89.9807 33.947 89.8794C34.0676 89.778 34.1664 89.6532 34.2373 89.5125C37.614 83.8864 41.3728 78.4988 45.4873 73.3875C47.9006 69.8463 50.7337 66.6103 53.9248 63.75C55.1708 62.9488 56.5802 62.4363 58.0498 62.25C60.3748 61.9125 62.6998 62.25 65.8498 61.9125C67.678 62.0015 69.5073 61.7602 71.2498 61.2C72.5841 60.3048 73.6602 59.0753 74.3708 57.6343C75.0815 56.1932 75.4018 54.591 75.2998 52.9875Z" fill="black"/>
<path fill-rule="evenodd" clip-rule="evenodd" d="M83.9625 74.775C82.9125 72.6375 81.7875 70.5375 80.625 68.475C78.8625 65.4375 77.6625 63.9 76.0875 60.7125C74.8125 59.25 73.6125 60.4875 73.9875 61.9875C74.9623 65.2157 76.217 68.3526 77.7375 71.3625C78.7875 73.5 79.9875 75.5625 81.15 77.625C82.875 80.7 84.9 83.6625 86.2875 86.8875C86.3351 87.048 86.4159 87.1968 86.5245 87.3243C86.6331 87.4517 86.7672 87.5551 86.9181 87.6276C87.0691 87.7001 87.2335 87.7402 87.4009 87.7454C87.5683 87.7506 87.7349 87.7206 87.89 87.6575C88.0451 87.5944 88.1853 87.4996 88.3016 87.379C88.4178 87.2585 88.5076 87.115 88.565 86.9577C88.6225 86.8004 88.6464 86.6328 88.6351 86.4657C88.6239 86.2986 88.5779 86.1357 88.5 85.9875C87.2618 82.1448 85.7453 78.3973 83.9625 74.775Z" fill="black"/>
<path fill-rule="evenodd" clip-rule="evenodd" d="M62.2499 80.5501C61.7391 79.1621 61.1118 77.8199 60.3749 76.5376C59.0249 74.4284 57.4259 72.4895 55.6124 70.7626C55.4409 70.5371 55.1882 70.3874 54.9081 70.3454C54.628 70.3034 54.3425 70.3723 54.1124 70.5376C53.9279 70.7438 53.8259 71.0109 53.8259 71.2876C53.8259 71.5643 53.9279 71.8313 54.1124 72.0376C55.1999 73.9501 55.8749 75.7876 56.7374 77.7751C57.3374 79.0501 57.9374 80.3251 58.6124 81.5251C59.7374 83.6251 61.0499 85.6126 62.3624 87.7126C62.4306 87.8561 62.5265 87.9846 62.6448 88.0907C62.763 88.1969 62.9011 88.2785 63.0511 88.3308C63.2011 88.3831 63.36 88.4051 63.5186 88.3956C63.6772 88.386 63.8323 88.3451 63.9749 88.2751C64.2579 88.13 64.4741 87.8816 64.5789 87.5814C64.6836 87.2812 64.6688 86.9522 64.5374 86.6626C63.7499 84.6001 63.0374 82.5001 62.2499 80.5501Z" fill="black"/>
<path fill-rule="evenodd" clip-rule="evenodd" d="M12.1874 25.9125C12.1874 26.85 12.1874 27.7875 12.4499 28.725L12.6374 30.5625C12.6856 31.0316 12.7734 31.4958 12.8999 31.95C13.05 32.2176 13.2673 32.4414 13.5304 32.5993C13.7934 32.7571 14.0932 32.8435 14.3999 32.85C14.7257 32.867 15.0492 32.787 15.3295 32.6201C15.6099 32.4532 15.8345 32.207 15.9749 31.9125C16.929 29.4046 17.6692 26.8203 18.1874 24.1875C18.3227 23.7294 18.5115 23.2889 18.7499 22.875C19.1825 22.2446 19.6998 21.6768 20.2874 21.1875C22.0874 19.7625 24.2249 18.975 26.0999 17.4375C26.3231 17.2599 26.5078 17.0386 26.6427 16.7871C26.7776 16.5357 26.8598 16.2595 26.8844 15.9752C26.9089 15.691 26.8753 15.4047 26.7856 15.1339C26.6958 14.8631 26.5518 14.6134 26.3624 14.4C24.7594 13.8384 23.2146 13.1226 21.7499 12.2625C21.2061 11.9062 20.7247 11.4627 20.3249 10.95C19.6626 10.179 19.1306 9.305 18.7499 8.36253C18.3388 7.2737 18.0005 6.15874 17.7374 5.02503C17.7374 4.35003 17.7374 2.92503 17.2874 1.98753C17.2134 1.53376 17.0475 1.09989 16.7999 0.712527C16.6565 0.5123 16.4718 0.345114 16.2583 0.222215C16.0449 0.099316 15.8076 0.0235545 15.5624 2.6538e-05C15.3148 -0.0314753 15.0634 -0.00370312 14.8286 0.0810547C14.5939 0.165812 14.3827 0.30513 14.2124 0.487527C13.9453 0.707726 13.7603 1.01162 13.6874 1.35003C13.6874 1.35003 13.6874 1.98753 13.6874 2.17503L13.2749 3.52503L11.5874 7.76253C10.8535 9.4892 9.644 10.9718 8.0999 12.0375C6.52844 13.0307 4.64412 13.4049 2.8124 13.0875C2.67696 13.0602 2.53745 13.0599 2.40189 13.0866C2.26633 13.1133 2.13737 13.1665 2.0224 13.2432C1.90744 13.3198 1.80873 13.4184 1.73194 13.5332C1.65515 13.6481 1.60178 13.777 1.5749 13.9125C0.8249 17.6625 5.3249 17.6625 8.4374 19.95C9.98853 21.0054 11.1794 22.5103 11.8499 24.2625C12.0019 24.8037 12.1147 25.3551 12.1874 25.9125ZM4.3499 15.375C6.09202 15.4505 7.82028 15.0347 9.3374 14.175C11.3958 12.9785 13.0731 11.2232 14.1749 9.11253L14.7749 7.87503C14.9631 8.75842 15.2265 9.62408 15.5624 10.4625C15.9757 11.5587 16.5578 12.5835 17.2874 13.5C17.7942 14.1506 18.3729 14.7419 19.0124 15.2625C19.5077 15.6552 20.0345 16.0064 20.5874 16.3125C19.6305 16.8421 18.7153 17.4439 17.8499 18.1125C16.9128 18.8698 16.1136 19.7832 15.4874 20.8125C15.1063 21.4667 14.7922 22.1577 14.5499 22.875C13.5703 20.7453 11.9773 18.9564 9.9749 17.7375C8.2563 16.6199 6.35111 15.8197 4.3499 15.375Z" fill="black"/>
</g>
<defs>
<clipPath id="clip0_65_621">
<rect width="90" height="90" fill="white"/>
</clipPath>
</defs>
</svg>
