<svg width="16" height="14" viewBox="0 0 16 14" fill="none" xmlns="http://www.w3.org/2000/svg">
<g clip-path="url(#clip0_65_617)">
<path d="M15.1526 2.37061C14.8827 1.83069 14.4884 1.36262 14.0021 1.00499C13.5158 0.647363 12.9515 0.410401 12.3557 0.313631C11.7599 0.216862 11.1497 0.263056 10.5752 0.448408C10.0007 0.633761 9.47856 0.952965 9.05168 1.37972L8.2739 2.15749C8.23777 2.19371 8.19486 2.22244 8.14761 2.24205C8.10037 2.26165 8.04972 2.27175 7.99856 2.27175C7.94741 2.27175 7.89676 2.26165 7.84952 2.24205C7.80227 2.22244 7.75936 2.19371 7.72323 2.15749L6.94545 1.37972C6.59164 1.0258 6.17159 0.745046 5.70927 0.553471C5.24696 0.361896 4.75144 0.263256 4.251 0.263184C3.75057 0.263111 3.25502 0.361608 2.79265 0.553049C2.33028 0.744491 1.91014 1.02513 1.55623 1.37894C0.841472 2.09349 0.439843 3.06271 0.439697 4.07339C0.439551 5.08406 0.840901 6.0534 1.55545 6.76816L7.7139 13.1926C7.75042 13.2301 7.79408 13.2599 7.8423 13.2802C7.89053 13.3006 7.94234 13.3111 7.99467 13.3111C8.04701 13.3111 8.09882 13.3006 8.14705 13.2802C8.19527 13.2599 8.23893 13.2301 8.27545 13.1926L14.4339 6.76816C15.0001 6.20337 15.3742 5.4747 15.5032 4.68541C15.6322 3.89613 15.5095 3.08627 15.1526 2.37061Z" fill="black"/>
</g>
<defs>
<clipPath id="clip0_65_617">
<rect width="15.5556" height="14" fill="white"/>
</clipPath>
</defs>
</svg>
